<?xml version="1.0" encoding="utf-8"?>
<!DOCTYPE svg PUBLIC "-//W3C//DTD SVG 20010904//EN" "http://www.w3.org/TR/2001/REC-SVG-20010904/DTD/svg10.dtd">
<svg version="1.0" width="360pt" height="360pt" viewBox="0 0 360 360" preserveAspectRatio="xMidYMid meet" xmlns="http://www.w3.org/2000/svg">
  <g transform="translate(0,360)scale(.075,.075)">
    <path id="path1" d="M 0 -2400 l 0 2400 2400 0 2400 0 0 -2400 0 -2400 -2400 0 -2400 0 0 2400 z " />
    <path id="path2" d="M 1818 -3149 c 98 15 167 53 253 138 86 86 112 140 130 268 29 206 -70 393 -259 491 l -77 40 -728 8 -727 7 0 97 c 0 53 -3 179 -7 278 l -6 182 -94 0 -93 0 2 -758 3 -757 60 -7 c 90 -9 1471 1 1543 13 z m 2380 3 c 146 37 262 125 329 249 l 38 72 0 145 c 0 139 -1 147 -28 203 -36 73 -119 162 -189 204 -56 34 -163 66 -263 78 l -60 8 55 50 c 193 174 479 438 499 461 l 24 26 -147 0 -147 0 -296 -275 -297 -275 -376 0 c -207 0 -418 3 -468 6 l -92 7 0 267 0 268 -31 6 c -40 8 -133 8 -153 0 -14 -6 -16 -82 -16 -766 l 0 -761 778 6 c 661 5 786 8 840 21 z " fill="#FFF" />
    <path id="path3" d="M 410 -2686 l 0 296 682 0 683 0 60 -29 c 75 -35 151 -114 161 -165 3 -20 4 -77 2 -126 -3 -76 -8 -94 -31 -127 -34 -50 -111 -108 -162 -123 -28 -8 -239 -13 -717 -17 l -678 -6 0 297 z " />
    <path id="path4" d="M 2782 -2688 l 3 293 675 0 c 775 0 753 2 830 -81 60 -65 84 -124 83 -205 -2 -110 -64 -213 -157 -261 -56 -29 -245 -37 -914 -37 l -522 -1 2 292 z " />
  </g>
</svg>